{"glyphs":{":":{"x_min":0,"x_max":271,"ha":271,"o":"m 249 455 l 215 308 l 91 308 l 124 455 z m 180 147 l 147 0 l 22 0 l 55 147 z m 181 484 z"},"$":{"x_min":0,"x_max":519,"ha":519,"o":"m 170 -76 l 188 7 q 148 9 102 18 q 55 28 15 42 l 41 161 l 105 161 q 108 126 118 105 q 128 85 147 75 q 166 65 200 62 l 250 290 q 197 328 170 356 q 144 384 129 415 q 114 446 114 482 q 114 537 141 577 q 168 617 218 639 q 269 661 332 664 l 350 747 l 404 747 l 386 665 q 463 661 542 634 l 517 513 l 453 513 q 451 601 373 607 l 327 396 q 379 358 408 329 q 437 300 451 268 q 466 237 466 200 q 466 112 408 63 q 350 13 242 7 l 224 -76 z m 280 426 l 320 608 q 280 604 256 578 q 232 552 232 514 q 232 489 243 469 q 254 449 280 426 z m 296 258 l 253 63 q 295 68 319 94 q 343 121 343 162 q 343 216 296 258 z"},"?":{"x_min":0,"x_max":438,"ha":438,"o":"m 150 218 l 154 236 q 156 242 159 249 q 161 256 165 264 q 168 271 174 281 q 180 291 189 304 q 199 316 211 330 q 223 344 238 361 q 276 402 297 431 q 318 461 330 492 q 342 523 342 557 q 342 589 329 606 q 317 624 291 624 q 262 624 238 600 q 215 577 202 535 l 115 535 l 136 629 q 184 648 212 657 q 240 666 267 670 q 294 674 323 674 q 375 674 409 659 q 444 644 459 619 q 475 594 475 563 q 475 537 468 513 q 460 489 444 466 q 427 442 401 416 q 375 390 326 346 q 295 318 278 298 q 261 279 252 261 q 243 244 238 222 l 237 218 z m 243 147 l 209 0 l 85 0 l 118 147 z"},"<":{"x_min":0,"x_max":573,"ha":573,"o":"m 62 236 l 86 348 l 579 535 l 553 422 l 171 283 l 492 145 l 471 45 z"},"'":{"x_min":0,"x_max":244,"ha":244,"o":"m 296 699 l 203 457 l 133 457 l 163 699 z"},"=":{"x_min":0,"x_max":573,"ha":573,"o":"m 94 346 l 115 442 l 550 442 l 529 346 z m 46 130 l 67 226 l 501 226 l 480 130 z"},"a":{"x_min":0,"x_max":570,"ha":570,"o":"m 445 457 l 489 492 l 544 484 l 469 144 q 463 118 460 103 q 458 87 458 76 q 458 54 468 44 q 479 35 506 32 l 501 0 l 313 0 l 340 100 l 333 102 q 300 59 272 35 q 243 12 216 2 q 188 -8 152 -8 q 118 -8 92 8 q 66 24 51 59 q 36 94 36 148 q 36 199 48 251 q 60 304 83 349 q 106 394 142 426 q 178 458 223 475 q 268 492 321 492 q 394 492 445 457 z m 372 304 q 375 319 377 339 q 379 358 379 376 q 379 408 367 425 q 355 441 327 441 q 282 441 247 396 q 211 350 190 273 q 168 196 168 135 q 168 99 179 82 q 189 64 211 64 q 244 64 277 95 q 311 127 331 169 q 352 212 368 286 z"},"L":{"x_min":0,"x_max":531,"ha":531,"o":"m 297 58 q 321 58 334 62 q 347 66 358 74 q 369 83 382 97 q 395 112 407 135 q 420 159 433 194 l 500 194 l 450 0 l 3 0 l 10 32 q 30 38 41 48 q 52 59 60 77 q 68 96 76 132 l 165 535 q 171 563 171 592 q 171 612 161 622 q 152 631 130 634 l 137 667 l 383 667 l 376 634 q 355 628 344 618 q 333 608 326 589 q 318 570 310 535 l 205 58 z"},"3":{"x_min":0,"x_max":573,"ha":573,"o":"m 123 512 l 151 628 q 216 652 271 663 q 326 674 380 674 q 429 674 466 661 q 503 647 525 619 q 546 590 546 548 q 546 510 532 480 q 519 450 494 426 q 470 402 437 384 q 403 365 365 352 l 364 345 q 419 331 452 294 q 484 256 484 206 q 484 161 467 122 q 450 83 414 52 q 378 21 329 6 q 279 -8 207 -8 q 158 -8 104 3 q 51 14 15 30 l 41 149 l 119 149 q 124 47 208 47 q 247 47 276 70 q 306 92 322 131 q 337 170 337 210 q 337 262 308 287 q 279 311 222 311 l 179 311 l 191 367 q 250 368 299 390 q 348 412 376 453 q 404 494 404 551 q 404 584 386 603 q 368 621 335 621 q 319 621 303 617 q 286 613 270 601 q 254 588 239 567 q 225 546 212 512 z"},";":{"x_min":0,"x_max":271,"ha":271,"o":"m 249 455 l 215 308 l 91 308 l 124 455 z m 170 147 q 169 116 166 90 q 163 64 156 40 q 150 16 139 -4 q 128 -24 105 -48 q 83 -72 54 -95 q 25 -118 -15 -143 l -48 -97 q -12 -71 9 -41 q 29 -11 41 37 q 53 85 57 147 z m 190 484 z"},"J":{"x_min":0,"x_max":333,"ha":333,"o":"m 197 42 q 171 -75 110 -132 q 49 -188 -52 -188 q -79 -188 -105 -181 l -91 -124 q -73 -128 -56 -128 q -27 -128 -10 -115 q 7 -101 20 -72 q 32 -42 46 21 l 160 535 q 167 563 167 592 q 167 612 157 622 q 147 631 126 634 l 133 667 l 378 667 l 372 634 q 351 628 340 618 q 329 608 321 589 q 313 570 306 535 z"},"V":{"x_min":0,"x_max":596,"ha":596,"o":"m 460 453 q 488 505 498 528 q 508 551 512 566 q 515 581 515 594 q 515 629 474 634 l 481 667 l 689 667 l 682 634 q 667 631 656 624 q 645 617 635 606 q 625 594 615 578 q 605 562 594 542 l 291 -3 l 168 -3 l 147 519 q 146 548 144 566 q 141 583 137 595 q 133 607 128 616 q 122 624 113 628 q 104 633 94 634 l 101 667 l 354 667 l 346 634 q 325 633 313 624 q 301 614 296 599 q 291 583 291 552 l 291 531 q 291 520 291 508 l 295 268 q 296 201 296 157 l 302 157 z"},"\"":{"x_min":0,"x_max":400,"ha":400,"o":"m 272 699 l 184 461 l 116 461 l 148 699 z m 452 699 l 365 461 l 295 461 l 328 699 z"},"7":{"x_min":0,"x_max":573,"ha":573,"o":"m 601 634 l 212 -1 l 109 -1 l 116 32 l 453 529 l 455 536 l 259 536 q 232 536 217 531 q 202 526 191 512 q 181 499 167 464 l 108 464 l 158 667 l 608 667 z"},"S":{"x_min":0,"x_max":501,"ha":501,"o":"m 90 163 q 92 120 104 95 q 115 70 137 60 q 158 49 193 49 q 247 49 277 80 q 308 110 308 165 q 308 193 298 215 q 289 237 268 257 q 248 278 198 314 q 152 349 128 390 q 104 432 104 477 q 104 516 121 553 q 138 590 170 617 q 203 645 252 660 q 301 674 367 674 q 416 674 457 669 q 498 664 542 651 l 512 512 l 448 512 q 447 566 426 592 q 405 617 358 617 q 307 617 277 590 q 248 562 248 514 q 248 479 271 449 q 295 418 343 384 q 386 352 410 326 q 433 300 445 271 q 457 243 457 206 q 457 156 433 111 q 410 69 371 41 q 336 17 299 6 q 254 -8 185 -8 q 140 -8 91 0 q 42 8 -4 22 l 26 163 z"},"}":{"x_min":0,"x_max":371,"ha":371,"o":"m 136 699 q 193 699 234 682 q 275 666 296 636 q 317 606 317 567 q 317 549 315 526 q 312 504 307 481 l 285 379 q 277 346 277 323 q 277 293 294 280 q 310 267 341 266 l 330 211 q 297 210 278 200 q 259 191 246 167 q 233 144 221 87 l 189 -55 q 177 -111 146 -145 q 114 -180 63 -195 q 13 -211 -61 -211 l -74 -211 l -62 -158 q -32 -158 -14 -152 q 4 -147 16 -137 q 27 -128 35 -114 q 43 -99 50 -80 q 56 -61 66 -16 l 89 85 q 98 124 110 148 q 123 173 139 190 q 155 208 177 219 q 198 231 222 241 l 224 250 q 190 269 174 295 q 159 322 159 363 q 159 396 169 443 l 184 516 q 188 538 191 554 q 193 571 193 580 q 193 605 186 619 q 179 632 161 638 q 143 645 110 645 l 122 699 z"},"Z":{"x_min":0,"x_max":544,"ha":544,"o":"m 183 58 l 307 58 q 323 58 333 61 q 344 63 351 67 q 359 71 367 79 q 375 87 388 104 q 400 120 409 138 q 418 156 428 181 l 492 181 l 453 0 l -13 0 l -6 32 l 403 608 l 284 608 q 264 608 253 605 q 242 603 233 596 q 224 590 212 577 q 201 564 186 539 q 172 515 164 495 l 100 495 l 138 667 l 600 667 l 592 634 z"},"x":{"x_min":0,"x_max":483,"ha":483,"o":"m 289 313 q 333 354 346 376 q 359 398 359 421 q 359 433 353 442 q 346 450 330 452 l 337 484 l 495 484 l 507 452 q 486 429 449 393 q 413 357 376 323 q 340 289 310 262 l 378 111 q 388 89 396 74 q 405 59 412 52 q 418 44 426 40 q 433 35 445 32 l 438 0 l 277 0 l 208 184 q 155 136 139 112 q 124 88 124 65 q 124 52 130 43 q 136 34 152 32 l 145 0 l -13 0 l -25 32 q 6 65 74 131 q 143 197 187 235 l 136 351 q 121 386 111 404 q 102 421 94 430 q 86 439 79 444 q 71 448 56 452 l 63 484 l 226 484 z"},")":{"x_min":0,"x_max":396,"ha":396,"o":"m 124 701 q 193 701 243 673 q 292 645 317 593 q 342 541 342 472 q 342 355 307 204 q 272 52 225 -37 q 178 -127 106 -170 q 35 -212 -78 -212 l -65 -157 q -28 -157 0 -144 q 29 -130 55 -99 q 87 -59 114 10 q 140 80 163 177 q 181 251 194 320 q 215 436 215 514 q 215 564 205 593 q 195 622 173 635 q 150 648 112 648 z"},"&":{"x_min":0,"x_max":712,"ha":712,"o":"m 408 57 q 375 37 354 27 q 333 16 309 8 q 286 0 258 -4 q 229 -8 194 -8 q 143 -8 105 10 q 67 28 48 60 q 29 92 29 133 q 29 197 77 252 q 125 306 234 358 q 221 385 212 414 q 204 442 204 476 q 204 534 233 579 q 262 625 316 650 q 371 675 441 675 q 469 675 495 670 q 521 665 541 653 q 561 641 573 621 q 585 602 585 574 q 585 547 578 526 q 571 505 557 486 q 543 467 520 449 q 498 432 472 416 q 446 400 386 367 q 405 330 433 282 q 462 234 489 193 q 525 229 541 258 q 556 286 556 312 q 556 327 548 335 q 540 342 521 344 l 528 376 l 662 376 l 677 348 q 637 239 522 144 q 538 119 550 105 q 562 92 573 86 q 585 80 601 80 q 627 80 661 108 l 690 63 q 645 25 606 9 q 567 -8 525 -8 q 485 -8 459 7 q 434 22 408 57 z m 361 420 q 404 443 430 464 q 457 485 471 509 q 485 534 485 563 q 485 591 471 608 q 458 624 434 624 q 406 624 385 608 q 364 592 352 565 q 341 538 341 506 q 341 463 361 420 z m 373 107 q 361 125 341 160 q 320 194 295 238 q 271 282 261 302 q 211 270 187 236 q 164 203 164 166 q 164 120 188 96 q 212 72 255 72 q 287 72 314 80 q 341 88 373 107 z"},"_":{"x_min":0,"x_max":352,"ha":352,"o":"m -79 -127 l -62 -51 l 290 -51 l 273 -127 z"},"v":{"x_min":0,"x_max":500,"ha":500,"o":"m 500 484 l 518 452 q 456 289 233 -7 l 139 -7 l 93 365 q 88 404 82 420 q 76 436 67 443 q 58 451 39 452 l 46 484 l 218 484 l 252 120 q 326 225 361 296 q 396 367 396 414 q 396 432 387 442 q 378 451 356 452 l 363 484 z"},"O":{"x_min":0,"x_max":675,"ha":675,"o":"m 284 -8 q 172 -8 116 51 q 59 109 59 222 q 59 261 67 311 q 75 360 93 416 q 112 471 145 521 q 177 570 221 605 q 266 640 320 657 q 374 674 434 674 q 545 674 602 616 q 660 558 660 447 q 660 400 650 343 q 640 286 617 228 q 594 170 561 125 q 528 80 484 50 q 441 20 391 6 q 341 -8 284 -8 z m 206 177 q 206 109 226 79 q 245 49 289 49 q 312 49 334 60 q 361 73 385 101 q 416 134 441 187 q 466 239 483 301 q 497 351 507 418 q 513 455 513 491 q 513 557 493 587 q 474 617 429 617 q 386 617 346 579 q 306 542 274 473 q 241 404 224 318 q 206 232 206 177 z"},"(":{"x_min":0,"x_max":396,"ha":396,"o":"m 277 -212 q 208 -212 159 -184 q 109 -156 84 -104 q 60 -53 60 17 q 60 124 89 260 q 119 401 160 491 q 195 569 242 616 q 283 657 337 678 q 396 701 479 701 l 467 646 q 427 646 397 630 q 367 615 341 580 q 306 534 276 445 q 243 348 213 195 q 186 58 186 -20 q 186 -75 197 -105 q 208 -135 229 -148 q 251 -160 289 -160 z"},"C":{"x_min":0,"x_max":552,"ha":552,"o":"m 606 650 l 575 508 l 511 508 q 509 551 502 573 q 495 595 479 606 q 463 617 437 617 q 415 617 392 608 q 369 598 347 578 q 321 554 298 516 q 274 479 256 430 q 241 391 229 340 q 216 290 211 248 q 206 206 206 173 q 206 132 214 105 q 221 79 240 64 q 259 49 292 49 q 329 49 355 62 q 381 74 400 98 q 418 121 437 162 l 500 162 l 469 18 q 422 4 375 -2 q 328 -8 274 -8 q 170 -8 115 49 q 59 106 59 213 q 59 245 65 288 q 75 353 95 412 q 119 479 154 529 q 190 579 234 611 q 279 643 331 659 q 383 674 442 674 q 487 674 527 668 q 567 662 606 650 z"},"W":{"x_min":0,"x_max":930,"ha":930,"o":"m 805 476 q 827 518 837 544 q 847 570 847 588 q 847 603 844 611 q 840 620 831 626 q 822 632 806 634 l 813 667 l 1021 667 l 1013 634 q 997 631 985 623 q 972 614 961 599 q 950 584 939 566 q 928 547 910 513 l 630 -3 l 513 -3 l 512 311 l 512 394 q 512 426 513 460 l 506 460 q 490 426 479 402 l 275 -3 l 158 -3 l 148 516 q 147 562 141 586 q 135 610 125 621 q 114 631 96 634 l 103 667 l 353 667 l 346 634 q 332 632 322 628 q 312 623 305 614 q 298 605 296 591 q 293 577 292 565 l 292 508 l 290 324 q 290 284 288 227 l 285 168 l 292 168 q 303 193 316 220 q 329 247 363 315 l 539 667 l 646 667 l 646 347 l 647 303 q 647 235 644 168 l 650 168 q 673 216 732 334 z"},"A":{"x_min":0,"x_max":614,"ha":614,"o":"m 366 207 l 175 207 l 168 194 q 157 175 149 159 q 141 143 135 127 q 128 110 126 97 q 123 84 123 73 q 123 38 165 32 l 157 0 l -49 0 l -42 32 q -24 36 -11 45 q 1 55 13 71 q 25 86 46 125 l 350 670 l 490 670 l 511 148 q 512 118 515 101 q 517 83 521 71 q 525 59 531 51 q 536 42 545 38 q 554 34 564 32 l 557 0 l 305 0 l 312 32 q 333 34 346 43 q 358 53 363 69 q 368 85 368 115 q 368 136 367 159 z m 206 264 l 365 264 l 363 381 q 362 443 362 484 q 362 516 362 548 l 356 548 z"},"f":{"x_min":0,"x_max":320,"ha":320,"o":"m 66 423 l 73 456 q 93 458 103 460 q 113 463 121 469 q 128 475 134 487 q 141 500 148 527 q 160 574 179 604 q 197 635 227 657 q 257 680 297 691 q 336 701 384 701 q 403 701 426 700 q 448 698 476 692 l 454 595 l 391 595 q 389 625 381 638 q 374 650 357 650 q 346 650 337 646 q 328 642 320 630 q 312 619 304 598 q 296 577 288 538 l 276 484 l 369 484 l 355 423 l 262 423 l 174 15 q 157 -63 126 -115 q 95 -166 45 -192 q -4 -218 -75 -218 q -98 -218 -122 -212 l -108 -159 q -95 -163 -76 -163 q -54 -163 -40 -156 q -26 -150 -15 -135 q -4 -121 6 -92 q 16 -63 27 -11 l 125 423 z"},"Q":{"x_min":0,"x_max":675,"ha":675,"o":"m 385 4 l 396 -24 q 406 -54 416 -69 q 425 -84 437 -92 q 449 -99 467 -99 q 486 -99 504 -89 q 522 -79 544 -56 l 582 -93 q 533 -142 494 -165 q 454 -187 408 -187 q 355 -187 319 -157 q 283 -127 263 -64 l 244 -6 q 154 4 106 61 q 59 119 59 222 q 59 261 67 311 q 75 360 93 416 q 112 471 145 521 q 177 570 221 605 q 266 640 320 657 q 374 674 434 674 q 545 674 602 616 q 660 558 660 447 q 660 399 649 340 q 638 280 615 224 q 593 168 558 123 q 524 78 480 47 q 436 16 385 4 z m 206 177 q 206 109 226 79 q 245 49 289 49 q 312 49 334 60 q 361 73 385 101 q 416 134 441 187 q 466 239 483 301 q 497 351 507 418 q 513 455 513 491 q 513 557 493 587 q 474 617 429 617 q 386 617 346 579 q 306 542 274 473 q 241 404 224 318 q 206 232 206 177 z"},"w":{"x_min":0,"x_max":773,"ha":773,"o":"m 771 484 l 789 452 q 766 386 688 260 q 611 134 504 -7 l 422 -7 l 407 137 q 400 196 398 226 q 396 255 396 273 l 392 273 q 364 216 321 144 q 277 72 220 -7 l 131 -7 l 93 368 q 89 402 84 419 q 79 435 70 443 q 60 451 42 452 l 49 484 l 219 484 l 246 130 q 302 217 328 269 q 354 320 367 363 q 380 405 385 452 l 392 484 l 501 484 l 532 129 q 603 236 635 303 q 667 370 667 414 q 667 432 658 442 q 649 451 627 452 l 634 484 z"},"-":{"x_min":0,"x_max":325,"ha":325,"o":"m 269 218 l 49 218 l 72 321 l 292 321 z"},"E":{"x_min":0,"x_max":562,"ha":562,"o":"m 611 667 l 577 509 l 514 509 q 512 556 505 574 q 499 593 486 601 q 473 609 449 609 l 326 609 l 274 375 l 342 375 q 362 375 375 381 q 389 388 400 403 q 412 417 423 444 l 477 444 l 430 246 l 379 246 q 379 274 376 289 q 373 304 363 311 q 354 318 332 318 l 262 318 l 205 57 l 314 57 q 336 57 348 60 q 360 63 370 69 q 380 76 393 90 q 406 104 419 125 q 432 146 446 176 l 512 176 l 467 0 l 3 0 l 10 32 q 30 38 41 48 q 52 59 60 77 q 68 96 76 132 l 165 535 q 171 563 171 592 q 171 612 161 622 q 152 631 130 634 l 137 667 z"},"s":{"x_min":0,"x_max":442,"ha":442,"o":"m 87 137 q 90 102 102 80 q 114 59 131 51 q 149 43 172 43 q 211 43 232 62 q 253 81 253 115 q 253 135 246 149 q 239 164 224 177 q 208 190 173 212 q 124 241 102 273 q 80 304 80 343 q 80 415 133 454 q 187 492 284 492 q 321 492 365 486 q 408 480 443 470 l 418 353 l 356 353 q 352 398 333 420 q 314 441 279 441 q 246 441 226 425 q 207 408 207 379 q 207 361 214 347 q 222 333 238 320 q 255 306 288 287 q 339 256 362 223 q 384 190 384 146 q 384 97 358 62 q 331 26 285 9 q 239 -8 180 -8 q 127 -8 83 -1 q 38 5 -2 16 l 25 137 z"},">":{"x_min":0,"x_max":573,"ha":573,"o":"m 535 337 l 510 225 l 18 38 l 43 151 l 426 290 l 104 428 l 126 527 z"},"l":{"x_min":0,"x_max":297,"ha":297,"o":"m 264 699 l 319 699 l 193 130 q 188 108 186 96 q 185 83 185 75 q 185 54 196 44 q 207 35 233 32 l 228 0 l 25 0 l 148 552 q 159 600 159 622 q 159 632 157 638 q 155 645 150 648 q 146 652 139 655 q 131 657 110 660 l 118 691 z"},"8":{"x_min":0,"x_max":573,"ha":573,"o":"m 438 335 q 478 315 498 284 q 517 254 517 210 q 517 145 484 95 q 451 45 390 19 q 330 -8 249 -8 q 182 -8 133 10 q 84 28 59 64 q 33 99 33 149 q 33 218 69 267 q 105 316 180 349 l 180 355 q 148 380 131 412 q 114 444 114 481 q 114 543 147 587 q 180 631 239 653 q 297 674 372 674 q 443 674 490 655 q 538 636 559 603 q 580 571 580 530 q 580 466 545 420 q 511 374 438 341 z m 248 456 q 248 432 254 413 q 260 395 276 384 q 292 372 319 372 q 355 372 383 393 q 412 414 428 453 q 444 491 444 539 q 444 580 426 600 q 408 620 373 620 q 339 620 314 604 q 290 589 275 563 q 260 537 254 507 q 248 477 248 456 z m 171 130 q 171 87 191 67 q 210 47 250 47 q 273 47 291 54 q 308 61 324 75 q 339 90 352 114 q 364 138 371 169 q 378 201 378 237 q 378 277 360 298 q 341 319 305 319 q 265 319 235 292 q 205 266 188 218 q 171 171 171 130 z"},"\\":{"x_min":0,"x_max":480,"ha":480,"o":"m 217 699 l 354 -210 l 267 -210 l 131 699 z"},"e":{"x_min":0,"x_max":499,"ha":499,"o":"m 444 102 q 395 46 338 19 q 281 -8 215 -8 q 158 -8 118 12 q 78 32 57 72 q 37 111 37 166 q 37 191 44 230 q 53 284 72 326 q 96 378 135 415 q 173 452 225 472 q 277 492 339 492 q 413 492 451 466 q 489 439 489 384 q 489 347 474 319 q 459 291 424 268 q 390 245 326 230 q 263 216 174 214 q 167 186 167 155 q 167 137 171 120 q 174 104 183 91 q 192 79 207 71 q 221 63 244 63 q 287 63 322 81 q 356 98 403 143 z m 186 266 q 275 268 323 300 q 371 332 371 391 q 371 416 359 428 q 348 441 327 441 q 282 441 245 396 q 209 352 186 266 z"},"b":{"x_min":0,"x_max":567,"ha":567,"o":"m 244 400 l 250 398 q 281 434 307 454 q 333 475 359 483 q 386 492 419 492 q 453 492 479 476 q 505 460 520 425 q 536 390 536 336 q 536 293 525 242 q 515 190 497 151 q 478 111 452 81 q 426 51 394 32 q 362 12 325 2 q 288 -8 246 -8 q 213 -8 184 0 q 155 8 124 27 l 78 -8 l 25 0 l 148 552 q 159 598 159 622 q 159 632 156 638 q 154 645 150 648 q 146 652 138 655 q 131 657 110 660 l 118 691 l 261 699 l 318 699 z m 200 181 q 192 145 192 110 q 192 74 204 59 q 216 43 245 43 q 263 43 278 49 q 293 55 308 68 q 323 82 338 107 q 357 140 372 181 q 386 222 395 267 q 403 312 403 350 q 403 386 392 403 q 382 420 360 420 q 328 420 294 389 q 261 357 241 316 q 221 274 204 199 z"},"%":{"x_min":0,"x_max":972,"ha":972,"o":"m 217 252 q 183 252 158 263 q 134 273 119 292 q 104 311 96 337 q 89 363 89 393 q 89 424 97 462 q 104 500 117 532 q 131 564 150 590 q 170 617 195 635 q 220 654 249 664 q 278 674 309 674 q 345 674 370 662 q 395 651 410 632 q 425 612 431 586 q 438 561 438 532 q 438 490 425 437 q 411 384 383 342 q 355 300 312 276 q 270 252 217 252 z m 182 347 q 182 319 191 308 q 201 296 221 296 q 251 296 279 339 q 307 382 326 461 q 345 539 345 579 q 345 606 335 618 q 326 630 304 630 q 296 630 288 627 q 280 624 270 615 q 260 606 249 589 q 237 571 225 543 q 213 514 205 481 q 196 448 188 403 q 182 369 182 347 z m 833 667 l 273 -47 l 172 -47 l 733 667 z m 695 -55 q 661 -55 637 -44 q 613 -33 597 -14 q 582 4 575 30 q 568 56 568 86 q 568 118 575 156 q 583 194 596 226 q 609 257 629 284 q 648 310 673 329 q 698 348 727 357 q 756 367 788 367 q 824 367 849 356 q 874 344 888 325 q 903 306 910 280 q 917 254 917 226 q 917 184 903 131 q 890 78 862 35 q 833 -7 791 -31 q 749 -55 695 -55 z m 660 40 q 660 13 670 1 q 680 -11 700 -11 q 729 -11 758 33 q 786 77 805 155 q 824 233 824 272 q 824 299 814 311 q 804 323 782 323 q 774 323 767 320 q 759 317 749 308 q 739 299 727 282 q 715 265 704 236 q 692 208 683 175 q 674 142 667 97 q 660 62 660 40 z"},"m":{"x_min":0,"x_max":866,"ha":866,"o":"m 531 391 q 572 444 614 468 q 655 492 707 492 q 757 492 785 464 q 813 436 813 387 q 813 355 804 311 l 764 130 q 759 108 757 96 q 755 83 755 75 q 755 53 766 44 q 777 35 804 32 l 798 0 l 596 0 l 663 293 q 668 316 671 331 q 674 346 675 356 q 676 367 676 376 q 676 398 667 409 q 658 421 640 421 q 625 421 606 408 q 587 396 565 372 q 543 347 529 320 q 516 292 507 250 l 454 0 l 313 0 l 383 306 q 388 326 390 337 q 392 349 393 357 q 394 366 394 373 q 394 398 385 409 q 376 421 357 421 q 334 421 302 391 q 270 361 252 330 q 234 299 225 250 l 171 0 l 31 0 l 107 345 q 110 356 114 378 q 118 400 118 415 q 118 435 107 443 q 95 450 71 452 l 78 484 l 212 490 l 264 490 l 236 384 l 242 382 q 276 424 304 448 q 333 472 361 482 q 390 492 424 492 q 473 492 501 465 q 529 438 531 391 z"},"#":{"x_min":0,"x_max":602,"ha":602,"o":"m 498 401 l 452 266 l 522 266 l 522 197 l 428 197 l 360 0 l 282 0 l 350 197 l 212 197 l 144 0 l 66 0 l 134 197 l 55 197 l 55 266 l 158 266 l 205 401 l 124 401 l 124 470 l 229 470 l 298 667 l 376 667 l 307 470 l 445 470 l 515 667 l 592 667 l 523 470 l 591 470 l 591 401 z m 283 401 l 236 266 l 375 266 l 421 401 z"},",":{"x_min":0,"x_max":225,"ha":225,"o":"m 160 147 q 159 116 156 90 q 153 64 147 40 q 140 16 129 -4 q 119 -24 96 -48 q 73 -72 44 -95 q 15 -118 -24 -143 l -58 -97 q -22 -71 -1 -41 q 20 -11 31 37 q 43 85 47 147 z"},"n":{"x_min":0,"x_max":585,"ha":585,"o":"m 518 0 l 315 0 l 376 266 q 389 322 392 344 q 395 365 395 377 q 395 399 386 410 q 376 421 359 421 q 343 421 325 409 q 306 397 283 373 q 260 348 247 320 q 233 292 225 250 l 171 0 l 31 0 l 107 345 q 110 356 114 378 q 118 400 118 415 q 118 435 107 443 q 95 450 71 452 l 78 484 l 212 490 l 264 490 l 236 384 l 242 382 q 275 424 304 448 q 333 471 362 482 q 390 492 425 492 q 475 492 504 464 q 533 436 533 387 q 533 355 523 311 l 483 130 q 478 108 476 96 q 475 83 475 75 q 475 53 486 44 q 497 35 523 32 z"},"h":{"x_min":0,"x_max":580,"ha":580,"o":"m 244 401 l 250 399 q 289 447 329 469 q 370 492 419 492 q 469 492 498 464 q 527 436 527 387 q 527 355 517 311 l 477 130 q 472 108 470 96 q 469 83 469 75 q 469 53 480 44 q 491 35 518 32 l 512 0 l 309 0 l 370 266 q 383 322 386 344 q 389 365 389 377 q 389 399 380 410 q 371 421 353 421 q 337 421 319 409 q 300 397 277 373 q 254 348 241 320 q 227 292 219 250 l 165 0 l 25 0 l 148 552 q 159 600 159 622 q 159 632 157 638 q 155 645 150 648 q 146 652 139 655 q 131 657 110 660 l 118 691 l 264 699 l 319 699 z"},"z":{"x_min":0,"x_max":472,"ha":472,"o":"m 264 174 q 240 144 213 111 q 185 79 164 56 l 167 52 l 260 52 q 280 52 294 57 q 309 63 321 76 q 333 88 344 108 q 355 127 367 152 l 418 152 l 386 0 l 10 0 l -7 32 l 209 305 q 263 373 313 428 l 310 433 l 218 433 q 200 433 185 425 q 169 418 155 400 q 140 382 117 341 l 65 341 l 96 484 l 468 484 l 485 452 z"},"B":{"x_min":0,"x_max":625,"ha":625,"o":"m 417 667 q 486 667 529 657 q 571 648 596 630 q 619 615 631 590 q 643 565 643 531 q 643 485 626 451 q 609 417 575 391 q 541 365 485 343 l 484 338 q 530 319 555 286 q 580 253 580 209 q 580 176 571 147 q 562 117 544 94 q 526 72 498 52 q 469 32 439 22 q 409 11 367 6 q 326 0 268 0 l 3 0 l 10 32 q 30 38 41 48 q 52 59 60 77 q 68 96 76 132 l 165 535 q 171 563 171 592 q 171 612 161 622 q 152 631 130 634 l 137 667 z m 350 375 q 393 375 425 394 q 457 413 474 447 q 491 481 491 526 q 491 568 465 589 q 438 609 383 609 q 349 609 325 607 l 274 375 z m 205 59 q 215 58 238 57 q 260 57 268 57 q 314 57 344 70 q 375 83 393 105 q 412 127 423 160 q 433 192 433 226 q 433 271 407 294 q 381 317 329 317 l 262 317 z"},"K":{"x_min":0,"x_max":655,"ha":655,"o":"m 273 370 l 281 370 q 299 370 316 376 q 333 382 354 400 q 376 417 425 466 q 469 509 490 534 q 510 560 518 578 q 523 591 523 602 q 523 619 515 626 q 507 632 489 634 l 497 667 l 735 667 l 728 633 q 711 630 699 624 q 687 618 669 603 q 650 588 614 553 l 438 384 l 541 130 q 553 99 562 81 q 572 63 581 53 q 589 43 599 39 q 608 34 619 32 l 613 0 l 369 0 l 376 32 q 389 34 395 39 q 400 44 400 57 q 400 68 395 87 q 390 105 374 146 l 330 262 q 320 286 312 297 q 304 308 295 312 q 286 316 269 316 l 262 316 l 221 132 q 218 119 217 112 q 216 104 216 96 q 215 87 215 75 q 215 54 224 45 q 234 35 255 32 l 249 0 l 3 0 l 10 32 q 30 38 41 48 q 52 59 60 77 q 68 96 76 132 l 165 535 q 171 563 171 592 q 171 612 161 622 q 152 631 130 634 l 137 667 l 383 667 l 376 634 q 355 628 344 618 q 333 608 326 589 q 318 570 310 535 z"},"R":{"x_min":0,"x_max":632,"ha":632,"o":"m 443 305 q 472 281 486 259 q 499 237 508 194 l 522 126 q 530 89 537 73 q 544 57 556 47 q 568 37 589 32 l 583 0 l 408 0 q 392 46 380 109 l 364 190 q 357 227 348 248 q 339 269 325 278 q 311 287 287 287 l 256 287 l 221 132 q 218 116 216 104 q 215 92 215 75 q 215 52 226 43 q 238 34 262 32 l 255 0 l 3 0 l 10 32 q 30 38 41 48 q 52 59 60 77 q 68 96 76 132 l 165 535 q 171 563 171 592 q 171 612 161 622 q 152 631 130 634 l 137 667 l 381 667 q 430 667 459 664 q 487 661 513 653 q 540 645 558 633 q 577 621 591 604 q 604 588 611 566 q 618 544 618 517 q 618 443 575 392 q 531 340 442 310 z m 300 344 q 348 344 380 355 q 411 367 432 390 q 453 414 464 445 q 476 476 476 515 q 476 562 452 586 q 428 609 376 609 q 339 609 326 608 l 269 344 z"},"T":{"x_min":0,"x_max":603,"ha":603,"o":"m 666 667 l 627 490 l 564 490 q 564 544 558 566 q 552 587 539 598 q 526 609 503 609 l 459 609 l 354 132 q 352 119 351 112 q 350 104 349 96 q 348 87 348 75 q 348 52 360 43 q 371 34 396 32 l 389 0 l 129 0 l 136 32 q 158 35 170 45 q 183 55 192 74 q 200 93 209 132 l 314 609 l 275 609 q 256 609 244 606 q 232 603 223 596 q 214 590 204 579 q 194 568 181 550 q 169 531 155 500 l 91 500 l 127 667 z"},"P":{"x_min":0,"x_max":596,"ha":596,"o":"m 381 667 q 432 667 459 664 q 496 660 526 649 q 556 637 576 618 q 597 600 607 573 q 618 546 618 512 q 618 458 598 414 q 578 371 541 340 q 503 309 446 293 q 389 277 318 277 l 304 277 q 274 277 254 279 l 221 132 q 218 116 216 105 q 215 93 215 75 q 215 52 226 43 q 238 34 262 32 l 255 0 l 3 0 l 10 32 q 30 38 41 48 q 52 59 60 77 q 68 96 76 132 l 165 535 q 171 563 171 592 q 171 612 161 622 q 152 631 130 634 l 137 667 z m 292 333 q 341 333 373 345 q 404 356 426 380 q 447 404 458 438 q 469 472 469 511 q 469 561 446 585 q 422 609 374 609 q 346 609 326 608 l 266 333 z"},"|":{"x_min":0,"x_max":309,"ha":309,"o":"m 103 -210 l 11 -210 l 211 699 l 303 699 z"},"t":{"x_min":0,"x_max":364,"ha":364,"o":"m 357 89 q 323 51 295 31 q 268 11 238 2 q 208 -8 169 -8 q 130 -8 104 7 q 78 21 66 45 q 54 69 54 100 q 54 123 58 143 q 61 164 72 211 l 122 423 l 56 423 l 63 456 q 93 458 110 466 q 127 474 139 489 q 151 505 162 532 q 173 560 186 606 l 303 606 l 275 484 l 394 484 l 380 423 l 261 423 l 207 200 q 203 186 200 171 q 197 157 195 144 q 193 131 193 123 q 192 114 192 107 q 192 84 200 74 q 208 63 225 63 q 247 63 270 79 q 293 95 320 127 z"},"M":{"x_min":0,"x_max":818,"ha":818,"o":"m 363 667 l 401 259 l 632 667 l 859 667 l 853 634 q 832 628 821 618 q 810 608 802 589 q 794 570 787 535 l 698 132 q 695 119 694 112 q 693 104 692 96 q 691 87 691 75 q 691 54 701 45 q 710 35 732 32 l 725 0 l 479 0 l 486 32 q 507 38 518 48 q 529 59 537 77 q 544 96 552 132 l 597 337 q 604 370 618 426 q 632 481 650 542 l 640 542 q 617 500 591 454 l 371 74 l 292 74 l 260 367 q 253 423 250 464 q 247 506 245 546 l 237 546 q 230 501 220 444 q 209 386 200 346 l 153 132 q 150 119 149 112 q 148 104 147 96 q 146 87 146 75 q 146 54 156 45 q 166 35 187 32 l 180 0 l 1 0 l 8 32 q 28 38 39 48 q 50 59 58 77 q 66 96 74 132 l 163 535 q 169 563 169 592 q 169 612 159 622 q 150 631 128 634 l 135 667 z"},"g":{"x_min":0,"x_max":565,"ha":565,"o":"m 74 -41 q 61 -57 56 -71 q 51 -85 51 -102 q 51 -135 74 -151 q 97 -167 144 -167 q 178 -167 205 -156 q 232 -145 255 -119 q 278 -94 298 -43 q 318 7 336 93 l 330 97 q 298 57 271 35 q 244 12 216 2 q 188 -8 152 -8 q 119 -8 93 8 q 66 24 51 59 q 36 94 36 148 q 36 215 55 280 q 75 345 111 392 q 146 439 200 466 q 253 492 322 492 q 357 492 386 485 q 415 477 445 457 l 489 492 l 544 484 l 502 293 q 492 247 483 204 l 453 53 q 440 -8 427 -47 q 415 -81 401 -105 q 388 -127 371 -145 q 354 -163 335 -175 q 315 -188 291 -197 q 263 -207 229 -212 q 192 -218 146 -218 q 77 -218 31 -206 q -16 -194 -39 -169 q -62 -145 -62 -108 q -62 -78 -40 -51 q -19 -24 23 0 z m 372 304 q 379 340 379 375 q 379 408 367 425 q 355 441 327 441 q 283 441 248 397 q 213 354 191 275 q 168 197 168 135 q 168 99 179 82 q 189 64 211 64 q 232 64 254 77 q 275 91 299 119 q 323 147 339 187 q 355 226 368 286 z"},"j":{"x_min":0,"x_max":297,"ha":297,"o":"m 312 679 l 286 560 l 160 560 l 187 679 z m 174 15 q 157 -64 125 -115 q 94 -167 45 -192 q -4 -218 -75 -218 q -98 -218 -122 -212 l -108 -159 q -95 -163 -76 -163 q -54 -163 -40 -156 q -26 -150 -15 -135 q -4 -121 6 -92 q 16 -63 27 -11 l 106 341 q 113 368 115 385 q 118 402 118 414 q 118 433 109 441 q 100 449 71 452 l 78 484 l 221 490 l 277 490 z"},"i":{"x_min":0,"x_max":302,"ha":302,"o":"m 312 679 l 286 560 l 160 560 l 187 679 z m 199 130 q 193 106 192 94 q 190 83 190 75 q 190 54 201 44 q 212 35 239 32 l 234 0 l 31 0 l 107 341 q 113 370 116 386 q 118 403 118 414 q 118 433 109 441 q 100 449 71 452 l 79 484 l 222 490 l 277 490 z"},"y":{"x_min":0,"x_max":500,"ha":500,"o":"m 138 0 l 94 362 q 89 398 84 416 q 78 434 69 442 q 59 450 39 452 l 46 484 l 218 484 l 252 120 q 326 225 361 296 q 396 367 396 414 q 396 432 387 442 q 378 451 356 452 l 363 484 l 500 484 l 518 452 q 497 397 455 322 q 413 247 350 155 q 288 63 218 -28 q 159 -104 120 -143 q 90 -172 63 -188 q 42 -201 18 -207 q -6 -213 -38 -213 q -52 -213 -72 -210 q -91 -207 -106 -202 l -82 -92 l -30 -92 q -30 -113 -22 -123 q -14 -132 1 -132 q 21 -132 38 -125 q 54 -119 71 -104 q 88 -90 112 -64 q 135 -38 166 0 z"},"@":{"x_min":0,"x_max":921,"ha":921,"o":"m 549 195 l 543 196 q 512 145 471 115 q 431 86 390 86 q 356 86 332 104 q 309 122 297 152 q 286 183 286 221 q 286 261 295 302 q 305 343 324 380 q 343 418 371 447 q 399 476 437 493 q 474 510 519 510 q 545 510 569 504 q 592 499 614 484 l 653 511 l 702 500 l 647 253 q 642 227 640 215 q 639 203 639 194 q 639 171 647 160 q 656 149 675 149 q 706 149 731 175 q 756 200 770 247 q 785 293 785 347 q 785 417 766 467 q 748 518 714 550 q 680 583 633 598 q 586 613 529 613 q 426 613 349 568 q 271 523 230 442 q 189 360 189 257 q 189 169 220 108 q 250 47 311 16 q 371 -15 457 -15 q 498 -15 535 -9 q 573 -3 616 11 l 632 -48 q 595 -62 548 -69 q 501 -77 452 -77 q 324 -77 241 -37 q 158 3 119 79 q 80 155 80 264 q 80 347 110 421 q 140 495 198 553 q 257 611 341 643 q 425 675 524 675 q 590 675 642 663 q 694 651 734 631 q 774 610 802 581 q 830 552 848 518 q 866 483 874 444 q 882 405 882 365 q 882 284 855 219 q 829 155 779 121 q 729 86 664 86 q 640 86 619 91 q 598 96 583 108 q 567 120 558 140 q 549 160 549 189 z m 565 354 q 567 364 570 380 q 572 396 572 409 q 572 435 561 447 q 551 459 528 459 q 491 459 461 427 q 431 396 412 340 q 394 283 394 227 q 394 191 402 175 q 411 158 432 158 q 451 158 470 171 q 488 184 509 213 q 530 241 542 268 q 554 294 562 334 z"},".":{"x_min":0,"x_max":225,"ha":225,"o":"m 156 147 l 123 0 l -2 0 l 31 147 z"},"p":{"x_min":0,"x_max":571,"ha":571,"o":"m 106 340 q 118 393 118 414 q 118 434 108 442 q 98 450 71 452 l 78 484 l 210 490 l 264 490 l 236 384 l 242 382 q 275 425 303 448 q 332 472 359 482 q 387 492 423 492 q 458 492 483 476 q 509 460 524 425 q 540 390 540 336 q 540 285 528 233 q 516 181 492 135 q 469 90 434 58 q 398 26 353 9 q 308 -8 254 -8 q 211 -8 170 7 l 148 -96 q 147 -104 146 -111 q 145 -118 144 -124 q 144 -130 144 -135 q 144 -156 155 -166 q 166 -175 192 -178 l 187 -210 l -16 -210 z m 204 181 q 196 145 196 110 q 196 74 208 59 q 220 43 249 43 q 267 43 282 49 q 297 55 312 68 q 327 82 342 107 q 361 140 376 181 q 390 222 398 267 q 407 312 407 350 q 407 386 396 403 q 386 420 364 420 q 332 420 298 389 q 265 357 245 316 q 225 274 208 199 z"},"X":{"x_min":0,"x_max":586,"ha":586,"o":"m 355 667 l 348 634 q 327 632 317 621 q 308 610 308 593 q 308 578 313 558 q 318 538 330 509 l 360 428 l 426 509 q 457 548 469 568 q 481 588 481 601 q 481 618 473 625 q 465 632 446 634 l 453 667 l 656 667 l 649 634 q 640 632 631 628 q 622 623 610 613 q 598 603 579 582 q 559 561 526 522 l 386 360 l 473 135 q 489 92 500 73 q 511 53 522 45 q 533 36 548 32 l 542 0 l 292 0 l 299 32 q 318 34 328 43 q 338 52 338 67 q 338 85 333 103 q 329 121 321 143 l 277 258 l 176 137 q 154 110 145 95 q 135 79 135 64 q 135 35 171 32 l 165 0 l -39 0 l -32 32 q -21 35 -9 42 q 3 50 21 68 q 40 86 83 135 l 251 325 l 176 522 q 171 537 162 557 q 153 578 145 594 q 137 609 130 617 q 123 625 116 628 q 109 632 99 634 l 106 667 z"},"*":{"x_min":0,"x_max":439,"ha":439,"o":"m 275 699 l 366 699 l 310 534 l 440 623 l 477 546 l 320 500 l 446 435 l 400 362 l 292 466 l 282 308 l 192 308 l 248 474 l 118 384 l 81 461 l 238 508 l 111 573 l 158 646 l 265 542 z"},"Y":{"x_min":0,"x_max":577,"ha":577,"o":"m 333 131 q 329 117 328 105 q 326 92 326 75 q 326 52 338 43 q 349 34 374 32 l 367 0 l 107 0 l 114 32 q 136 35 148 45 q 161 55 170 74 q 178 93 187 132 l 216 264 l 152 536 q 148 554 144 570 q 139 585 133 598 q 127 612 121 619 q 114 626 108 630 q 102 633 90 634 l 98 667 l 336 667 l 329 634 q 291 630 291 589 q 291 563 301 520 l 339 341 l 451 503 q 478 542 486 562 q 495 583 495 603 q 495 617 487 624 q 479 632 459 634 l 467 667 l 667 667 l 660 634 q 650 632 642 627 q 634 623 623 613 q 613 603 594 579 q 575 555 550 520 l 361 259 z"},"c":{"x_min":0,"x_max":452,"ha":452,"o":"m 371 129 l 410 87 q 359 36 308 14 q 256 -8 195 -8 q 145 -8 109 14 q 73 35 55 75 q 38 115 38 168 q 38 211 48 253 q 55 284 67 313 q 83 353 104 382 q 128 417 163 441 q 198 466 242 479 q 286 492 336 492 q 369 492 407 487 q 445 482 474 473 l 447 354 l 359 354 q 360 364 360 375 q 360 410 349 426 q 338 441 317 441 q 281 441 249 400 q 216 358 194 285 q 172 211 172 155 q 172 63 239 63 q 272 63 302 79 q 333 94 371 129 z"},"!":{"x_min":0,"x_max":328,"ha":328,"o":"m 336 667 l 198 218 l 115 218 l 176 667 z m 205 147 l 172 0 l 47 0 l 80 147 z"},"/":{"x_min":0,"x_max":480,"ha":480,"o":"m 555 699 l 29 -210 l -69 -210 l 457 699 z"},"[":{"x_min":0,"x_max":355,"ha":355,"o":"m 236 -210 l -4 -210 l 195 699 l 435 699 l 423 646 l 315 646 l 140 -157 l 248 -157 z"},"6":{"x_min":0,"x_max":573,"ha":573,"o":"m 539 641 l 533 610 q 460 604 404 575 q 348 545 306 495 q 264 445 234 375 l 239 373 q 279 391 308 397 q 338 404 372 404 q 421 404 456 383 q 491 362 508 325 q 526 288 526 241 q 526 175 496 116 q 466 58 407 25 q 347 -8 263 -8 q 200 -8 156 17 q 111 42 89 90 q 66 138 66 205 q 66 267 83 332 q 100 397 140 458 q 179 520 239 567 q 298 614 371 642 q 444 669 521 674 z m 385 242 q 385 338 317 338 q 296 338 279 333 q 261 328 245 318 q 232 310 224 298 q 215 287 209 270 q 202 249 197 217 q 192 184 192 156 q 192 101 209 74 q 227 47 265 47 q 300 47 327 71 q 354 95 370 142 q 385 188 385 242 z"},"r":{"x_min":0,"x_max":456,"ha":456,"o":"m 461 352 l 374 352 q 374 384 366 397 q 359 410 342 410 q 334 410 326 406 q 317 403 306 395 q 295 387 280 369 q 265 351 254 334 q 244 317 237 298 q 230 279 225 250 l 171 0 l 31 0 l 107 345 q 118 393 118 415 q 118 435 107 443 q 95 450 71 452 l 78 484 l 212 490 l 268 490 l 231 376 l 237 375 q 278 433 323 462 q 369 492 421 492 q 454 492 490 483 z"},"2":{"x_min":0,"x_max":573,"ha":573,"o":"m 330 120 q 355 120 369 123 q 383 127 393 137 q 402 147 414 175 l 474 175 l 430 0 l 0 0 l 7 32 q 33 77 78 130 q 123 183 204 260 q 278 330 315 374 q 353 418 372 459 q 391 500 391 544 q 391 580 373 600 q 354 621 323 621 q 283 621 254 594 q 226 567 205 512 l 116 512 l 144 629 q 217 654 268 664 q 318 674 369 674 q 428 674 467 657 q 506 641 524 613 q 542 585 542 550 q 542 518 532 489 q 521 459 496 428 q 472 396 429 358 q 387 319 312 257 q 276 228 235 189 q 193 151 169 125 l 168 120 z"},"{":{"x_min":0,"x_max":371,"ha":371,"o":"m 239 -211 q 183 -211 142 -195 q 101 -178 79 -148 q 58 -118 58 -79 q 58 -61 61 -36 q 64 -11 68 7 l 91 108 q 98 142 98 165 q 98 194 82 208 q 65 221 35 222 l 46 277 q 71 277 89 284 q 106 290 117 303 q 128 316 137 338 q 146 360 155 401 l 186 543 q 198 599 230 633 q 262 667 312 683 q 363 699 437 699 l 449 699 l 438 646 q 402 646 382 637 q 361 629 349 614 q 336 599 328 574 q 320 550 310 503 l 287 403 q 278 364 265 339 q 253 314 237 297 q 220 280 199 268 q 178 256 153 247 l 151 238 q 187 218 202 192 q 217 166 217 125 q 217 92 207 45 l 191 -28 q 187 -49 185 -66 q 183 -83 183 -92 q 183 -119 190 -132 q 197 -145 215 -151 q 233 -157 265 -157 l 253 -211 z"},"9":{"x_min":0,"x_max":573,"ha":573,"o":"m 95 25 l 101 56 q 197 70 269 128 q 341 187 381 292 l 377 293 q 337 275 309 269 q 280 262 248 262 q 199 262 163 283 q 127 305 109 342 q 90 378 90 425 q 90 496 125 553 q 159 611 219 642 q 278 674 355 674 q 417 674 461 648 q 505 623 528 575 q 550 528 550 462 q 550 404 534 337 q 517 271 480 209 q 442 148 386 102 q 330 55 260 27 q 189 -1 112 -8 z m 230 423 q 230 328 299 328 q 316 328 331 332 q 347 335 359 342 q 372 348 380 355 q 389 361 396 372 q 402 382 407 394 q 411 407 415 427 q 418 448 421 468 q 423 489 423 512 q 423 567 406 593 q 388 619 351 619 q 316 619 289 594 q 262 569 246 523 q 230 477 230 423 z"}," ":{"x_min":0,"x_max":220,"ha":220,"o":""},"I":{"x_min":0,"x_max":341,"ha":341,"o":"m 249 0 l 3 0 l 10 32 q 30 38 41 48 q 52 59 60 77 q 68 96 76 132 l 165 535 q 171 563 171 592 q 171 612 161 622 q 152 631 130 634 l 137 667 l 383 667 l 376 634 q 355 628 344 618 q 333 608 326 589 q 318 570 310 535 l 221 132 q 218 119 217 112 q 216 104 216 96 q 215 87 215 75 q 215 54 224 45 q 234 35 255 32 z"},"H":{"x_min":0,"x_max":691,"ha":691,"o":"m 574 132 q 571 119 570 112 q 569 104 568 96 q 567 87 567 75 q 567 54 577 45 q 586 35 608 32 l 601 0 l 355 0 l 362 32 q 383 38 394 48 q 405 59 413 77 q 420 96 428 132 l 469 318 l 262 318 l 221 132 q 218 119 217 112 q 216 104 216 96 q 215 87 215 75 q 215 54 224 45 q 234 35 255 32 l 249 0 l 3 0 l 10 32 q 30 38 41 48 q 52 59 60 77 q 68 96 76 132 l 165 535 q 171 563 171 592 q 171 612 161 622 q 152 631 130 634 l 137 667 l 383 667 l 376 634 q 355 628 344 618 q 333 608 326 589 q 318 570 310 535 l 276 380 l 483 380 l 517 535 q 523 563 523 592 q 523 612 514 622 q 504 631 483 634 l 490 667 l 735 667 l 729 634 q 708 628 697 618 q 686 608 678 589 q 670 570 663 535 z"},"4":{"x_min":0,"x_max":573,"ha":573,"o":"m 191 32 q 215 37 230 57 q 246 77 255 121 l 271 193 l 19 193 l 30 246 l 399 670 l 514 670 l 423 255 l 437 255 q 459 255 469 258 q 479 261 488 270 q 496 279 507 301 l 558 301 l 530 193 l 409 193 l 396 132 q 390 102 390 80 q 390 55 398 45 q 407 35 430 32 l 423 0 l 185 0 z m 125 255 l 285 255 l 325 433 q 336 480 345 515 l 340 515 l 127 263 z"},"~":{"x_min":0,"x_max":573,"ha":573,"o":"m 36 254 q 54 276 76 301 q 98 325 117 342 q 136 358 152 368 q 168 378 184 382 q 199 386 216 386 q 234 386 250 381 q 265 376 279 367 q 292 357 316 333 q 338 311 350 302 q 361 292 372 288 q 382 284 397 284 q 410 284 423 290 q 435 295 450 310 q 465 324 499 368 l 561 317 q 516 263 489 237 q 461 211 435 198 q 409 185 381 185 q 361 185 346 189 q 331 194 316 205 q 300 216 278 239 q 259 260 247 269 q 235 278 225 283 q 214 287 202 287 q 188 287 177 283 q 166 278 155 269 q 145 260 133 247 q 122 233 98 203 z"},"D":{"x_min":0,"x_max":679,"ha":679,"o":"m 3 0 l 10 32 q 30 38 41 48 q 52 59 60 77 q 68 96 76 132 l 165 535 q 171 563 171 592 q 171 612 161 622 q 152 631 130 634 l 137 667 l 335 667 q 405 667 449 660 q 493 654 526 640 q 547 630 572 614 q 597 598 617 570 q 638 542 648 503 q 659 465 659 417 q 659 353 645 293 q 630 233 601 183 q 573 132 533 96 q 493 60 453 39 q 413 19 363 10 q 312 0 244 0 z m 205 60 q 228 58 241 58 q 304 58 350 83 q 396 107 431 158 q 466 209 487 283 q 507 356 507 431 q 507 481 496 515 q 484 549 465 570 q 445 591 419 600 q 393 609 363 609 q 339 609 326 608 z"},"^":{"x_min":0,"x_max":573,"ha":573,"o":"m 413 326 l 362 578 l 206 326 l 92 326 l 324 674 l 435 674 l 515 326 z"},"0":{"x_min":0,"x_max":573,"ha":573,"o":"m 225 -8 q 142 -8 98 44 q 54 96 54 197 q 54 261 72 344 q 90 427 121 489 q 152 552 192 593 q 232 634 280 654 q 328 674 381 674 q 443 674 481 649 q 520 624 537 579 q 554 534 554 469 q 554 418 542 351 q 529 283 511 231 q 493 180 466 135 q 439 91 402 59 q 366 26 321 9 q 276 -8 225 -8 z m 183 120 q 183 81 195 64 q 208 47 235 47 q 254 47 272 61 q 302 83 329 140 q 363 213 393 337 q 422 462 422 534 q 422 563 418 581 q 414 599 402 609 q 391 620 371 620 q 348 620 326 599 q 289 564 255 474 q 224 389 201 268 q 183 175 183 120 z"},"F":{"x_min":0,"x_max":536,"ha":536,"o":"m 221 132 q 218 119 217 112 q 216 104 216 96 q 215 87 215 75 q 215 52 226 43 q 238 34 262 32 l 255 0 l 3 0 l 10 32 q 30 38 41 48 q 52 59 60 77 q 68 96 76 132 l 165 535 q 171 563 171 592 q 171 612 161 622 q 152 631 130 634 l 137 667 l 599 667 l 564 509 l 502 509 q 500 556 493 574 q 487 593 474 601 q 460 609 437 609 l 326 609 l 272 365 l 338 365 q 356 365 370 373 q 384 380 396 397 q 407 413 420 444 l 474 444 l 423 226 l 373 226 q 373 260 369 277 q 365 293 356 301 q 347 308 327 308 l 260 308 z"},"`":{"x_min":0,"x_max":271,"ha":271,"o":"m 230 720 l 296 555 l 255 531 l 135 688 l 142 720 z"},"k":{"x_min":0,"x_max":538,"ha":538,"o":"m 228 288 l 238 288 q 253 288 267 293 q 281 297 300 310 q 319 322 351 348 q 371 364 381 376 q 391 389 395 400 q 399 412 399 424 q 399 435 393 443 q 387 451 371 452 l 379 484 l 553 484 l 565 453 q 535 419 483 380 l 374 298 l 437 119 q 448 86 457 70 q 465 54 477 45 q 489 36 513 32 l 505 0 l 332 0 l 266 211 q 261 226 257 232 q 253 238 247 240 q 241 242 230 242 l 218 242 l 165 0 l 25 0 l 148 552 q 159 600 159 622 q 159 632 157 638 q 155 645 150 648 q 146 652 139 655 q 131 657 110 660 l 118 691 l 264 699 l 319 699 z"},"u":{"x_min":0,"x_max":584,"ha":584,"o":"m 72 484 l 274 484 l 213 219 q 200 162 197 141 q 194 119 194 107 q 194 84 203 74 q 212 63 230 63 q 240 63 251 68 q 262 73 273 82 q 285 91 301 107 q 317 123 329 141 q 341 160 349 181 q 357 202 364 234 l 418 484 l 558 484 l 481 140 q 479 128 475 106 q 471 84 471 70 q 471 49 482 42 q 494 34 518 32 l 511 0 l 327 0 l 353 100 l 347 102 q 302 45 260 19 q 217 -8 164 -8 q 114 -8 85 20 q 57 48 57 98 q 57 129 66 173 l 106 354 q 111 376 113 389 q 115 401 115 410 q 115 431 104 440 q 93 449 66 452 z"},"]":{"x_min":0,"x_max":355,"ha":355,"o":"m 124 699 l 363 699 l 164 -210 l -76 -210 l -64 -157 l 44 -157 l 220 646 l 112 646 z"},"U":{"x_min":0,"x_max":654,"ha":654,"o":"m 566 232 q 552 167 529 120 q 505 73 472 45 q 438 18 395 5 q 351 -8 287 -8 q 246 -8 209 3 q 172 13 145 35 q 117 57 101 90 q 85 123 85 168 q 85 192 89 221 q 92 250 105 310 l 156 535 q 163 563 163 592 q 163 612 153 622 q 144 631 122 634 l 129 667 l 375 667 l 368 634 q 347 628 336 618 q 325 608 317 589 q 310 570 302 535 l 236 235 q 229 203 226 181 q 224 159 224 139 q 224 95 245 72 q 267 49 309 49 q 351 49 378 67 q 406 85 423 119 q 440 152 452 205 l 524 535 q 529 554 530 567 q 531 581 531 592 q 531 612 521 622 q 512 631 490 634 l 497 667 l 705 667 l 698 634 q 677 628 666 617 q 655 606 647 587 q 640 568 632 535 z"},"o":{"x_min":0,"x_max":540,"ha":540,"o":"m 219 -8 q 165 -8 124 11 q 83 31 60 70 q 37 109 37 166 q 37 188 40 214 q 44 247 54 282 q 65 322 82 353 q 101 388 125 414 q 149 439 178 456 q 207 473 240 482 q 280 492 324 492 q 385 492 426 470 q 467 448 487 408 q 506 369 506 316 q 506 252 485 187 q 463 122 426 78 q 388 34 336 13 q 284 -8 219 -8 z m 168 134 q 168 88 183 66 q 198 43 230 43 q 249 43 265 51 q 281 58 297 76 q 313 95 326 123 q 338 151 350 192 q 361 233 368 273 q 374 312 374 347 q 374 396 359 418 q 344 441 313 441 q 272 441 242 402 q 212 362 190 279 q 168 195 168 134 z"},"N":{"x_min":0,"x_max":662,"ha":662,"o":"m 137 667 l 322 667 l 417 390 q 455 277 478 191 l 484 191 q 498 275 521 378 l 555 535 q 562 564 562 592 q 562 612 552 622 q 542 631 521 634 l 528 667 l 708 667 l 701 634 q 680 628 669 618 q 658 608 650 589 q 643 570 635 535 l 517 0 l 406 0 l 289 341 q 275 381 264 416 q 253 451 238 505 l 231 505 q 227 473 216 415 q 205 358 190 291 l 155 132 q 152 119 151 112 q 150 104 149 96 q 148 87 148 75 q 148 54 158 45 q 167 35 189 32 l 182 0 l 2 0 l 9 32 q 30 38 41 48 q 52 59 60 77 q 67 96 75 132 l 164 535 q 170 563 170 592 q 170 612 161 622 q 151 631 130 634 z"},"+":{"x_min":0,"x_max":573,"ha":573,"o":"m 338 238 l 297 48 l 194 48 l 236 238 l 61 238 l 83 333 l 257 333 l 299 523 l 401 523 l 359 333 l 534 333 l 512 238 z"},"G":{"x_min":0,"x_max":619,"ha":619,"o":"m 394 181 q 398 199 399 211 q 400 223 400 233 q 400 253 391 263 q 381 273 359 276 l 366 308 l 604 308 l 597 276 q 578 270 569 260 q 560 251 552 234 q 545 217 536 176 l 499 8 l 431 -8 l 405 27 q 341 -8 272 -8 q 169 -8 115 50 q 60 107 60 216 q 60 270 74 337 q 89 404 115 459 q 141 514 175 555 q 210 596 252 622 q 294 649 340 662 q 386 674 439 674 q 543 674 625 646 l 595 507 l 531 507 q 531 549 522 573 q 513 597 495 607 q 476 617 445 617 q 414 617 387 604 q 356 589 329 558 q 296 521 271 463 q 242 399 222 314 q 204 239 204 173 q 204 111 224 80 q 245 49 286 49 q 310 49 327 58 q 344 66 356 81 q 368 95 375 113 q 383 131 387 150 z"},"q":{"x_min":0,"x_max":564,"ha":564,"o":"m 326 92 q 296 54 269 32 q 242 10 214 1 q 187 -8 152 -8 q 118 -8 92 8 q 66 24 51 59 q 36 94 36 148 q 36 199 48 251 q 60 304 83 349 q 106 394 142 426 q 178 458 223 475 q 268 492 321 492 q 394 492 445 457 l 489 492 l 544 484 l 420 -80 q 415 -104 413 -116 q 412 -127 412 -136 q 412 -157 422 -166 q 433 -175 460 -178 l 455 -210 l 252 -210 l 332 90 z m 372 304 q 379 340 379 375 q 379 408 367 425 q 355 441 327 441 q 281 441 247 396 q 212 352 190 274 q 168 197 168 135 q 168 99 179 82 q 189 64 211 64 q 244 64 277 95 q 311 127 331 169 q 352 212 368 286 z"},"d":{"x_min":0,"x_max":570,"ha":570,"o":"m 421 552 q 424 564 428 587 q 432 610 432 622 q 432 632 430 638 q 428 645 423 648 q 419 652 412 655 q 404 657 383 660 l 391 691 l 537 699 l 592 699 l 469 144 q 463 120 460 104 q 458 87 458 76 q 458 54 468 44 q 479 35 506 32 l 501 0 l 313 0 l 340 100 l 333 102 q 300 59 272 35 q 243 12 216 2 q 188 -8 152 -8 q 118 -8 92 8 q 66 24 51 59 q 36 94 36 148 q 36 199 48 251 q 60 304 83 349 q 106 394 142 426 q 177 458 222 475 q 268 492 321 492 q 364 492 405 477 z m 372 304 q 375 318 377 338 q 379 357 379 375 q 379 408 367 425 q 355 441 327 441 q 282 441 247 396 q 211 350 190 273 q 168 196 168 135 q 168 99 179 82 q 189 64 211 64 q 244 64 277 95 q 311 127 331 169 q 352 212 368 286 z"},"1":{"x_min":0,"x_max":573,"ha":573,"o":"m 355 152 q 346 110 346 92 q 346 73 357 63 q 368 53 392 49 q 416 45 464 44 l 455 0 l 53 0 l 62 44 q 115 47 139 51 q 163 56 175 65 q 188 74 195 90 q 203 106 212 145 l 282 464 q 288 488 288 503 q 288 518 282 524 q 276 530 266 530 q 256 530 244 527 q 232 523 216 514 q 199 505 150 478 l 125 528 l 406 674 l 472 674 q 458 623 442 544 z"},"5":{"x_min":0,"x_max":573,"ha":573,"o":"m 32 30 l 57 149 l 136 149 q 137 100 160 73 q 184 47 227 47 q 269 47 299 71 q 329 96 344 139 q 360 183 360 223 q 360 271 337 296 q 314 321 268 321 q 244 321 221 317 q 199 313 175 305 l 134 335 l 207 667 l 464 667 q 481 667 490 669 q 498 672 504 677 q 510 683 520 699 l 571 699 l 528 543 l 260 543 l 221 368 q 271 384 336 384 q 387 384 425 367 q 463 349 484 315 q 504 281 504 234 q 504 205 500 183 q 493 148 480 121 q 465 89 442 66 q 419 42 389 27 q 354 8 314 0 q 273 -8 227 -8 q 177 -8 122 3 q 68 13 32 30 z"}}}
